<svg width="20" height="18" xmlns="http://www.w3.org/2000/svg" fill="none">

 <g>
  <title>Layer 1</title>
  <path transform="rotate(180 9.99998 8.99988)" id="svg_1" fill="#84BE51" d="m18.7979,7.5961c-0.0819,-0.01328 -0.1647,-0.01941 -0.2475,-0.01833l-14.10963,0l0.30766,-0.1431c0.30074,-0.14234 0.57432,-0.33606 0.80851,-0.5724l3.95669,-3.95669c0.52107,-0.49744 0.60867,-1.29768 0.20749,-1.89606c-0.4669,-0.63764 -1.3623,-0.77609 -1.99999,-0.30918c-0.05151,0.03774 -0.10048,0.07888 -0.14649,0.12315l-7.15495,7.15495c-0.55916,0.55854 -0.55965,1.46458 -0.00111,2.02376c0.00035,0.0003 0.00076,0.0007 0.00111,0.0011l7.15495,7.1549c0.5596,0.5581 1.46564,0.5568 2.02373,-0.0028c0.04391,-0.044 0.08492,-0.0909 0.12275,-0.1403c0.40118,-0.5983 0.31358,-1.3986 -0.20749,-1.896l-3.94953,-3.9639c-0.20996,-0.2101 -0.45134,-0.3864 -0.7155,-0.5223l-0.42929,-0.1932l14.05229,0c0.731,0.0272 1.3724,-0.48345 1.5097,-1.20199c0.1265,-0.78011 -0.4033,-1.51506 -1.1834,-1.64161z"/>
 </g>
</svg>