<svg width="94" height="41" viewBox="0 0 94 41" fill="none" xmlns="http://www.w3.org/2000/svg">
<path d="M52.7164 26.144C52.0204 26.144 51.4004 25.972 50.8564 25.628C50.3124 25.284 49.8844 24.788 49.5724 24.14C49.2684 23.484 49.1164 22.704 49.1164 21.8C49.1164 20.896 49.2684 20.12 49.5724 19.472C49.8844 18.816 50.3124 18.316 50.8564 17.972C51.4004 17.628 52.0204 17.456 52.7164 17.456C53.4124 17.456 54.0324 17.628 54.5764 17.972C55.1204 18.316 55.5444 18.816 55.8484 19.472C56.1604 20.12 56.3164 20.896 56.3164 21.8C56.3164 22.704 56.1604 23.484 55.8484 24.14C55.5444 24.788 55.1204 25.284 54.5764 25.628C54.0324 25.972 53.4124 26.144 52.7164 26.144ZM52.7164 24.5C53.2284 24.5 53.6284 24.28 53.9164 23.84C54.2124 23.4 54.3604 22.72 54.3604 21.8C54.3604 20.88 54.2124 20.2 53.9164 19.76C53.6284 19.32 53.2284 19.1 52.7164 19.1C52.2124 19.1 51.8124 19.32 51.5164 19.76C51.2284 20.2 51.0844 20.88 51.0844 21.8C51.0844 22.72 51.2284 23.4 51.5164 23.84C51.8124 24.28 52.2124 24.5 52.7164 24.5ZM58.2246 23.768C58.5606 23.768 58.8366 23.876 59.0526 24.092C59.2686 24.3 59.3766 24.576 59.3766 24.92C59.3766 25.08 59.3566 25.24 59.3166 25.4C59.2766 25.56 59.1886 25.8 59.0526 26.12L58.3686 27.848H57.1806L57.7086 25.94C57.5086 25.86 57.3486 25.732 57.2286 25.556C57.1166 25.372 57.0606 25.16 57.0606 24.92C57.0606 24.576 57.1686 24.3 57.3846 24.092C57.6086 23.876 57.8886 23.768 58.2246 23.768ZM63.6969 26.144C63.0009 26.144 62.3809 25.972 61.8369 25.628C61.2929 25.284 60.8649 24.788 60.5529 24.14C60.2489 23.484 60.0969 22.704 60.0969 21.8C60.0969 20.896 60.2489 20.12 60.5529 19.472C60.8649 18.816 61.2929 18.316 61.8369 17.972C62.3809 17.628 63.0009 17.456 63.6969 17.456C64.3929 17.456 65.0129 17.628 65.5569 17.972C66.1009 18.316 66.5249 18.816 66.8289 19.472C67.1409 20.12 67.2969 20.896 67.2969 21.8C67.2969 22.704 67.1409 23.484 66.8289 24.14C66.5249 24.788 66.1009 25.284 65.5569 25.628C65.0129 25.972 64.3929 26.144 63.6969 26.144ZM63.6969 24.5C64.2089 24.5 64.6089 24.28 64.8969 23.84C65.1929 23.4 65.3409 22.72 65.3409 21.8C65.3409 20.88 65.1929 20.2 64.8969 19.76C64.6089 19.32 64.2089 19.1 63.6969 19.1C63.1929 19.1 62.7929 19.32 62.4969 19.76C62.2089 20.2 62.0649 20.88 62.0649 21.8C62.0649 22.72 62.2089 23.4 62.4969 23.84C62.7929 24.28 63.1929 24.5 63.6969 24.5ZM77.2439 21.08H73.9319V26H72.0719V19.544H77.2439V21.08ZM82.0399 19.448C82.6399 19.448 83.1839 19.588 83.6719 19.868C84.1679 20.14 84.5559 20.528 84.8359 21.032C85.1159 21.528 85.2559 22.108 85.2559 22.772C85.2559 23.436 85.1159 24.02 84.8359 24.524C84.5559 25.02 84.1679 25.408 83.6719 25.688C83.1839 25.96 82.6399 26.096 82.0399 26.096C81.2159 26.096 80.5679 25.836 80.0959 25.316V28.328H78.2239V19.544H80.0119V20.288C80.4759 19.728 81.1519 19.448 82.0399 19.448ZM81.7159 24.56C82.1959 24.56 82.5879 24.4 82.8919 24.08C83.2039 23.752 83.3599 23.316 83.3599 22.772C83.3599 22.228 83.2039 21.796 82.8919 21.476C82.5879 21.148 82.1959 20.984 81.7159 20.984C81.2359 20.984 80.8399 21.148 80.5279 21.476C80.2239 21.796 80.0719 22.228 80.0719 22.772C80.0719 23.316 80.2239 23.752 80.5279 24.08C80.8399 24.4 81.2359 24.56 81.7159 24.56ZM86.568 19.544H88.428V22.064H91.236V19.544H93.108V26H91.236V23.588H88.428V26H86.568V19.544Z" fill="black"/>
<g clip-path="url(#clip0_25_1203)">
<path d="M27.9077 16.3429C27.8161 16.2116 27.6687 16.1305 27.5086 16.1236L17.5837 15.6958C17.2989 15.6833 17.0609 15.9032 17.0488 16.1866C17.0367 16.47 17.2561 16.7094 17.5395 16.7215L26.7926 17.1204L24.9732 22.7969H16.877L15.4142 14.8325C15.3821 14.658 15.2623 14.5124 15.097 14.4475L12.7013 13.5063C12.4373 13.403 12.1393 13.5327 12.0356 13.7964C11.9321 14.0602 12.0618 14.3583 12.3257 14.462L14.4558 15.2989L15.9443 23.403C15.9892 23.6466 16.2015 23.8236 16.4493 23.8236H16.6962L16.1324 25.3897C16.0852 25.5209 16.1047 25.6666 16.185 25.7806C16.2652 25.8946 16.3956 25.9624 16.5349 25.9624H16.9303C16.6853 26.2351 16.5349 26.5942 16.5349 26.9891C16.5349 27.8384 17.2259 28.5292 18.075 28.5292C18.924 28.5292 19.615 27.8384 19.615 26.9891C19.615 26.5943 19.4646 26.2351 19.2196 25.9624H22.5774C22.3322 26.2351 22.1818 26.5942 22.1818 26.9891C22.1818 27.8384 22.8727 28.5292 23.7219 28.5292C24.5712 28.5292 25.262 27.8384 25.262 26.9891C25.262 26.5943 25.1116 26.2351 24.8666 25.9624H25.3476C25.5839 25.9624 25.7754 25.7709 25.7754 25.5346C25.7754 25.2983 25.5839 25.1068 25.3476 25.1068H17.1436L17.6055 23.8234H25.3475C25.5708 23.8234 25.7683 23.6792 25.8363 23.4668L27.9753 16.793C28.0245 16.6407 27.9993 16.4742 27.9077 16.3429ZM18.075 27.6738C17.6975 27.6738 17.3905 27.3668 17.3905 26.9893C17.3905 26.6118 17.6975 26.3048 18.075 26.3048C18.4525 26.3048 18.7595 26.6118 18.7595 26.9893C18.7595 27.3668 18.4525 27.6738 18.075 27.6738ZM23.7219 27.6738C23.3444 27.6738 23.0374 27.3668 23.0374 26.9893C23.0374 26.6118 23.3444 26.3048 23.7219 26.3048C24.0994 26.3048 24.4064 26.6118 24.4064 26.9893C24.4064 27.3668 24.0994 27.6738 23.7219 27.6738Z" fill="#8C3213"/>
</g>
<circle cx="20" cy="21" r="19.5" stroke="#8C3213"/>
<circle cx="34" cy="7" r="7" fill="#84BE51"/>
<path d="M34.6534 4V11H33.9334V4.64H32.2834V4H34.6534Z" fill="white"/>
<defs>
<clipPath id="clip0_25_1203">
<rect width="16" height="16" fill="white" transform="translate(12 13)"/>
</clipPath>
</defs>
</svg>
