<?xml version="1.0" encoding="UTF-8" standalone="no" ?>
<!DOCTYPE svg PUBLIC "-//W3C//DTD SVG 1.1//EN" "http://www.w3.org/Graphics/SVG/1.1/DTD/svg11.dtd">
<svg xmlns="http://www.w3.org/2000/svg" xmlns:xlink="http://www.w3.org/1999/xlink" version="1.1" width="41" height="41" viewBox="0 0 41 41" xml:space="preserve">
<desc>Created with Fabric.js 4.6.0</desc>
<defs>
</defs>
<g transform="matrix(1 0 0 1 20.5 20.5)" id="HBkJ6FxQlf29bTyh1oUjj"  >
<g style="" vector-effect="non-scaling-stroke"   >
		<g transform="matrix(1 0 0 1 0 0)" id="DAwz766McNCxQjuUvJRva"  >
<path style="stroke: none; stroke-width: 1; stroke-dasharray: none; stroke-linecap: butt; stroke-dashoffset: 0; stroke-linejoin: miter; stroke-miterlimit: 4; fill: rgb(140,50,19); fill-rule: nonzero; opacity: 1;" vector-effect="non-scaling-stroke"  transform=" translate(-20, -20)" d="M 0 20 C 0 8.95431 8.95431 0 20 0 C 31.04569 0 40 8.95431 40 20 C 40 31.04569 31.04569 40 20 40 C 8.95431 40 0 31.04569 0 20 z" stroke-linecap="round" />
</g>
		<g transform="matrix(1 0 0 1 0 0)" id="U2aJ_tfQIMmKAhKxXsioI"  >
<path style="stroke: rgb(140,50,19); stroke-width: 1; stroke-dasharray: none; stroke-linecap: butt; stroke-dashoffset: 0; stroke-linejoin: miter; stroke-miterlimit: 4; fill: none; fill-rule: nonzero; opacity: 1;" vector-effect="non-scaling-stroke"  transform=" translate(-19.5, -19.5)" d="M 0 19.5 C 0 8.73045 8.73045 0 19.5 0 C 30.269550000000002 0 39 8.73045 39 19.5 C 39 30.269550000000002 30.269550000000002 39 19.5 39 C 8.73045 39 0 30.269550000000002 0 19.5 z" stroke-linecap="round" />
</g>
		<g transform="matrix(1 0 0 1 -0.2 0)" id="L0WlKPpvo1DobOPCt6OaH"  >
<path style="stroke: rgb(255,255,255); stroke-width: 0.3; stroke-dasharray: none; stroke-linecap: butt; stroke-dashoffset: 0; stroke-linejoin: miter; stroke-miterlimit: 4; fill: rgb(255,255,255); fill-rule: nonzero; opacity: 1;" vector-effect="non-scaling-stroke"  transform=" translate(-33.8, -29)" d="M 33.7998 22.8475 C 32.9078 21.9405 31.6947 21.4281 30.4092 21.4281 C 27.7847 21.4281 25.6498 23.563 25.6498 26.1875 C 25.6498 27.7345 26.2279 29.3316 27.3521 30.9329 L 27.3521 30.9329 C 27.4741 31.1067 27.7138 31.1486 27.8876 31.0266 C 27.8876 31.0266 27.8876 31.0266 27.8876 31.0266 L 27.8014 30.9039 C 27.9073 30.8295 27.9329 30.6833 27.8585 30.5774 C 26.8035 29.0746 26.2686 27.5977 26.2686 26.1875 C 26.2686 23.9043 28.126 22.0469 30.4092 22.0469 C 31.6578 22.0469 32.8275 22.6024 33.6182 23.571 C 33.6628 23.6256 33.7294 23.6572 33.7998 23.6572 C 33.8702 23.6572 33.9369 23.6256 33.9814 23.571 C 34.7721 22.6024 35.9418 22.0469 37.1904 22.0469 C 39.4736 22.0469 41.3311 23.9046 41.3311 26.188 L 33.7998 22.8475 Z M 33.7998 22.8475 C 34.6918 21.9405 35.9049 21.4281 37.1904 21.4281 C 39.8149 21.4281 41.9498 23.5633 41.9498 26.1881 C 41.9495 27.5207 41.5189 28.8955 40.6799 30.2731 C 40.0161 31.3631 39.0949 32.4598 37.9445 33.5334 C 35.9942 35.3535 34.0162 36.5063 33.9924 36.5201 L 33.9924 36.5201 C 33.9328 36.5547 33.8662 36.5719 33.7998 36.5719 C 33.7349 36.5719 33.6699 36.5554 33.6114 36.5225 M 33.7998 22.8475 L 41.1811 26.188 C 41.1808 27.5292 40.6776 28.8183 39.9529 29.9785 C 39.2285 31.1382 38.288 32.1606 37.4266 32.9652 C 35.8889 34.4015 34.332 35.4095 33.7987 35.739 C 33.7455 35.7078 33.6851 35.6731 33.6181 35.6347 C 32.8215 35.178 31.0837 34.1816 29.3312 32.0184 C 29.1975 31.8534 28.9554 31.8282 28.7905 31.9617 L 28.7905 31.9617 C 28.6256 32.0954 28.6002 32.3374 28.7339 32.5024 M 28.7339 32.5024 C 28.7339 32.5024 28.7339 32.5024 28.7339 32.5024 L 28.8504 32.4079 L 28.7339 32.5024 Z M 28.7339 32.5024 C 29.8929 33.9329 31.1037 34.9329 32.0296 35.5781 C 32.4926 35.9008 32.8846 36.1349 33.1636 36.2898 C 33.3032 36.3673 33.4144 36.425 33.4922 36.464 C 33.531 36.4836 33.5614 36.4984 33.5827 36.5087 L 33.6071 36.5204 C 33.6091 36.5214 33.6105 36.5221 33.6114 36.5225 M 33.6114 36.5225 C 33.6132 36.5234 33.6132 36.5234 33.6123 36.5229 C 33.6114 36.5225 33.6094 36.5214 33.6073 36.5202 L 33.6824 36.3903 L 33.6073 36.5201 C 33.6086 36.5209 33.61 36.5217 33.6114 36.5225 Z M 37.1904 22.1969 C 39.3907 22.1969 41.181 23.9874 41.1811 26.188 L 34.0976 23.6659 C 34.8599 22.7321 35.9869 22.1969 37.1904 22.1969 Z" stroke-linecap="round" />
</g>
</g>
</g>
<g transform="matrix(1 0 0 1 72.5 47.56)" id="JLUDpeCc526CSVG14OC9Y"  >
<path style="stroke: rgb(0,0,0); stroke-width: 1; stroke-dasharray: none; stroke-linecap: butt; stroke-dashoffset: 0; stroke-linejoin: miter; stroke-miterlimit: 4; fill: rgb(255,255,255); fill-opacity: 0; fill-rule: nonzero; opacity: 1;" vector-effect="non-scaling-stroke"  transform=" translate(0, 0)" d="M 0 0" stroke-linecap="round" />
</g>
</svg>