<?xml version="1.0" encoding="UTF-8"?>
<svg xmlns="http://www.w3.org/2000/svg" xmlns:xlink="http://www.w3.org/1999/xlink" width="32px" height="26px" viewBox="0 0 32 26" version="1.1">
<g id="surface1">
<path style=" stroke:none;fill-rule:nonzero;fill:rgb(51.764706%,77.254902%,31.764706%);fill-opacity:1;" d="M 31.800781 0.0351562 C 31.699219 0 31.597656 0 31.480469 0 L 23.097656 0 L 23.097656 0.0195312 L 18.03125 0.0195312 C 13.28125 0.195312 9.695312 1.4375 7.304688 3.707031 C 7.1875 3.8125 7.085938 3.917969 6.96875 4.023438 C 5.621094 5.425781 4.695312 7.179688 4.15625 9.289062 L 0 25.992188 L 13.804688 25.992188 C 18.535156 25.816406 22.101562 24.59375 24.492188 22.324219 C 24.613281 22.214844 24.710938 22.109375 24.832031 22.003906 C 26.195312 20.601562 27.136719 18.828125 27.660156 16.703125 L 31.832031 0.0195312 C 31.816406 0.0351562 31.816406 0.0351562 31.800781 0.0351562 Z M 19.410156 14.46875 C 19.105469 15.671875 18.550781 16.683594 17.761719 17.480469 C 17.660156 17.589844 17.542969 17.710938 17.421875 17.800781 C 17.355469 17.855469 17.289062 17.90625 17.222656 17.960938 C 16.296875 18.707031 15.21875 19.132812 14.007812 19.238281 L 10.421875 19.238281 L 12.421875 11.558594 C 12.726562 10.371094 13.265625 9.378906 14.039062 8.582031 C 14.140625 8.476562 14.257812 8.351562 14.375 8.261719 C 14.445312 8.191406 14.527344 8.121094 14.613281 8.066406 C 15.539062 7.324219 16.617188 6.898438 17.828125 6.789062 L 21.429688 6.789062 Z M 19.410156 14.46875 "/>
</g>
</svg>
