<?xml version="1.0" encoding="UTF-8"?>
<svg xmlns="http://www.w3.org/2000/svg" xmlns:xlink="http://www.w3.org/1999/xlink" width="24px" height="24px" viewBox="0 0 24 24" version="1.1">
<g id="surface1">
<path style="fill-rule:nonzero;fill:rgb(51.764706%,74.509804%,31.764706%);fill-opacity:1;stroke-width:0.2;stroke-linecap:butt;stroke-linejoin:miter;stroke:rgb(51.764706%,74.509804%,31.764706%);stroke-opacity:1;stroke-miterlimit:4;" d="M 28.910319 24.973958 C 28.676758 24.729004 28.289388 24.717611 28.044434 24.951172 C 25.663249 27.212728 22.900391 29.217936 21.014811 30.061035 C 19.237467 30.858561 17.294922 31.052246 15.426432 30.64209 C 16.258138 30.135091 17.010091 29.508464 17.659505 28.796387 C 21.812337 28.249512 24.780273 25.264486 24.911296 25.133464 C 25.144857 24.894206 25.144857 24.506836 24.899902 24.267578 C 24.660645 24.034017 24.273275 24.034017 24.034017 24.278971 L 24.005534 24.307454 C 23.988444 24.324544 23.959961 24.353027 23.925781 24.38151 C 23.851725 24.44987 23.749186 24.546712 23.618164 24.660645 C 23.350423 24.888509 22.963053 25.201823 22.473145 25.54362 C 21.550293 26.181641 20.268555 26.910807 18.776042 27.320964 C 19.750163 25.754395 20.319824 23.908691 20.319824 21.931966 C 20.319824 21.561686 20.297038 21.145833 20.257161 20.701497 C 20.228678 20.365397 19.926758 20.114746 19.590658 20.143229 C 19.254557 20.177409 19.003906 20.473633 19.038086 20.809733 C 19.072266 21.219889 19.095052 21.601562 19.095052 21.931966 C 19.095052 26.888021 15.061849 30.915527 10.111491 30.915527 C 5.155436 30.915527 1.12793 26.888021 1.12793 21.931966 C 1.12793 19.220378 2.284342 14.60612 3.885091 10.960286 C 4.847819 8.761393 5.901693 7.041016 6.972656 5.867513 C 8.04362 4.69401 9.108887 4.084473 10.111491 4.084473 C 11.017253 4.084473 11.883138 4.568685 12.657878 5.269368 C 13.432617 5.975749 14.110514 6.887207 14.640299 7.724609 L 14.725749 7.667643 L 14.640299 7.724609 C 14.816895 8.00944 15.198568 8.094889 15.483398 7.912598 C 15.768229 7.730306 15.853678 7.354329 15.671387 7.069499 L 15.591634 7.120768 L 15.671387 7.069499 C 13.922526 4.300944 12.04834 2.859701 10.111491 2.859701 C 8.675944 2.859701 7.263184 3.662923 5.913086 5.206706 C 4.790853 6.494141 3.731283 8.265788 2.762858 10.470378 C 1.07666 14.298503 -0.102539 19.009603 -0.102539 21.931966 C -0.102539 27.560221 4.477539 32.140299 10.111491 32.140299 C 11.416016 32.140299 12.669271 31.895345 13.819987 31.445312 C 14.965007 31.866862 16.155599 32.077637 17.346191 32.077637 C 18.764648 32.077637 20.183105 31.775716 21.516113 31.177572 C 23.561198 30.266113 26.381022 28.221029 28.887533 25.839844 C 29.132487 25.606283 29.14388 25.218913 28.910319 24.973958 Z M 28.910319 24.973958 " transform="matrix(0.685714,0,0,0.685714,0,0)"/>
<path style="fill-rule:nonzero;fill:rgb(51.764706%,74.509804%,31.764706%);fill-opacity:1;stroke-width:0.2;stroke-linecap:butt;stroke-linejoin:miter;stroke:rgb(51.764706%,74.509804%,31.764706%);stroke-opacity:1;stroke-miterlimit:4;" d="M 16.787923 9.051921 C 17.12972 9.729818 17.454427 10.447591 17.762044 11.199544 C 21.020508 10.555827 24.609375 10.316569 27.474772 10.572917 C 31.33138 10.914714 33.87207 12.105306 34.749349 14.064941 C 35.495605 15.734049 34.960124 17.705078 33.974609 19.539388 C 32.989095 21.379395 31.542155 23.105469 30.419922 24.301758 M 16.787923 9.051921 L 30.345866 24.233398 M 16.787923 9.051921 C 16.639811 8.75 16.269531 8.630371 15.967611 8.78418 Z M 30.419922 24.301758 L 30.345866 24.233398 M 30.419922 24.301758 L 30.345866 24.233398 M 30.419922 24.301758 C 30.300293 24.43278 30.135091 24.495443 29.969889 24.495443 C 29.821777 24.495443 29.673665 24.438477 29.554036 24.330241 C 29.309082 24.09668 29.291992 23.70931 29.525553 23.464355 M 30.345866 24.233398 C 30.243327 24.341634 30.106608 24.3986 29.969889 24.3986 C 29.844564 24.3986 29.719238 24.347331 29.622396 24.256185 C 29.417318 24.0625 29.405924 23.737793 29.599609 23.532715 M 29.525553 23.464355 L 29.599609 23.532715 M 29.525553 23.464355 L 29.599609 23.532715 M 29.525553 23.464355 C 31.274414 21.595866 32.521973 19.847005 33.21696 18.326009 C 33.917643 16.799316 34.054362 15.517578 33.632812 14.566243 L 33.718262 14.526367 L 33.632812 14.566243 C 33.211263 13.626302 32.254232 12.982585 31.092122 12.549642 C 29.924316 12.116699 28.568522 11.900228 27.366536 11.791992 C 24.677734 11.552734 21.305339 11.763509 18.217773 12.355957 M 29.599609 23.532715 C 33.108724 19.790039 34.606934 16.503092 33.723958 14.526367 C 32.84668 12.572428 29.787598 11.905924 27.37793 11.69515 C 24.672038 11.455892 21.282552 11.666667 18.183594 12.264811 C 18.194987 12.293294 18.20638 12.327474 18.217773 12.355957 M 18.217773 12.355957 C 18.479818 13.068034 18.730469 13.791504 18.952637 14.526367 M 18.217773 12.355957 C 18.183594 12.361654 18.149414 12.373047 18.120931 12.378743 C 18.382975 13.09082 18.633626 13.819987 18.861491 14.560547 C 18.889974 14.549154 18.924154 14.53776 18.952637 14.526367 M 18.952637 14.526367 C 24.746094 12.504069 28.990072 13.4611 29.183757 13.51237 M 18.952637 14.526367 C 18.96403 14.560547 18.975423 14.58903 18.98112 14.62321 C 24.75179 12.606608 28.978678 13.563639 29.16097 13.609212 C 29.440104 13.671875 29.611003 13.945312 29.542643 14.224447 M 29.183757 13.51237 L 19.847005 18.525391 C 19.67041 17.585449 19.442546 16.617025 19.174805 15.642904 C 24.723307 13.666178 28.887533 14.594727 28.927409 14.60612 C 29.206543 14.668783 29.47998 14.497884 29.542643 14.224447 M 29.183757 13.51237 C 29.51416 13.586426 29.719238 13.916829 29.639486 14.247233 L 29.542643 14.224447 M 29.183757 13.51237 L 29.16097 13.603516 Z M 29.183757 13.51237 L 19.294434 15.705566 M 29.542643 14.224447 L 29.639486 14.247233 C 29.56543 14.577637 29.235026 14.782715 28.904622 14.702962 L 28.893229 14.697266 L 28.853353 14.691569 C 28.819173 14.685872 28.7736 14.674479 28.705241 14.663086 C 28.579915 14.640299 28.397624 14.611816 28.152669 14.583333 C 27.674154 14.526367 26.984863 14.475098 26.118978 14.480794 C 24.404297 14.492188 22.023112 14.748535 19.294434 15.705566 M 19.294434 15.705566 C 19.556478 16.651204 19.772949 17.596842 19.943848 18.508301 C 20.00651 18.838704 19.790039 19.157715 19.453939 19.220378 Z M 19.294434 15.705566 " transform="matrix(0.685714,0,0,0.685714,0,0)"/>
<path style="fill-rule:nonzero;fill:rgb(51.764706%,74.509804%,31.764706%);fill-opacity:1;stroke-width:0.2;stroke-linecap:butt;stroke-linejoin:miter;stroke:rgb(51.764706%,74.509804%,31.764706%);stroke-opacity:1;stroke-miterlimit:4;" d="M 20.735677 22.575684 C 20.843913 22.792155 21.060384 22.91748 21.288249 22.91748 C 21.379395 22.91748 21.47054 22.900391 21.55599 22.854818 L 27.526042 19.921061 C 27.827962 19.772949 27.953288 19.408366 27.805176 19.100749 C 27.651367 18.798828 27.286784 18.673503 26.984863 18.821615 L 21.014811 21.755371 C 20.712891 21.903483 20.587565 22.273763 20.735677 22.575684 Z M 20.735677 22.575684 L 20.826823 22.530111 M 20.735677 22.575684 L 20.826823 22.530111 M 20.826823 22.530111 C 20.701497 22.27946 20.809733 21.971842 21.060384 21.846517 L 21.516113 22.763672 C 21.442057 22.803548 21.362305 22.820638 21.288249 22.820638 C 21.10026 22.820638 20.917969 22.712402 20.826823 22.530111 Z M 20.826823 22.530111 " transform="matrix(0.685714,0,0,0.685714,0,0)"/>
<path style="fill-rule:nonzero;fill:rgb(51.764706%,74.509804%,31.764706%);fill-opacity:1;stroke-width:0.2;stroke-linecap:butt;stroke-linejoin:miter;stroke:rgb(51.764706%,74.509804%,31.764706%);stroke-opacity:1;stroke-miterlimit:4;" d="M 5.240885 25.395508 C 5.571289 25.332845 5.78776 25.008138 5.719401 24.677734 C 4.676921 19.425456 5.43457 15.289714 6.254883 12.749023 C 6.699219 11.370443 7.206217 10.299479 7.610677 9.570312 C 7.810059 9.205729 7.980957 8.926595 8.106283 8.738607 C 8.163249 8.647461 8.214518 8.573405 8.248698 8.527832 C 8.265788 8.499349 8.277181 8.482259 8.288574 8.470866 L 8.299967 8.453776 L 8.220215 8.391113 L 8.299967 8.453776 C 8.505046 8.180339 8.453776 7.798665 8.186035 7.593587 C 7.918294 7.388509 7.530924 7.439779 7.325846 7.70752 C 7.274577 7.781576 6.055501 9.393717 5.104167 12.327474 C 4.226888 15.016276 3.417969 19.385579 4.517415 24.916992 L 4.597168 24.899902 L 4.517415 24.916992 C 4.580078 25.20752 4.836426 25.412598 5.121257 25.406901 C 5.161133 25.406901 5.201009 25.406901 5.240885 25.395508 Z M 5.240885 25.395508 L 5.218099 25.298665 Z M 5.240885 25.395508 " transform="matrix(0.685714,0,0,0.685714,0,0)"/>
<path style="fill-rule:nonzero;fill:rgb(51.764706%,74.509804%,31.764706%);fill-opacity:1;stroke-width:0.2;stroke-linecap:butt;stroke-linejoin:miter;stroke:rgb(51.764706%,74.509804%,31.764706%);stroke-opacity:1;stroke-miterlimit:4;" d="M 15.397949 16.01888 C 15.711263 15.899251 16.064453 16.05306 16.189779 16.366374 Z M 15.397949 16.01888 C 15.078939 16.144206 14.92513 16.497396 15.050456 16.81071 L 15.050456 16.816406 L 15.056152 16.833496 C 15.061849 16.844889 15.067546 16.867676 15.078939 16.890462 C 15.096029 16.941732 15.118815 17.021484 15.152995 17.118327 C 15.215658 17.312012 15.301107 17.591146 15.386556 17.938639 C 15.563151 18.633626 15.745443 19.602051 15.791016 20.695801 C 15.904948 23.572591 15.050456 25.9139 13.250326 27.668457 M 15.397949 16.01888 L 13.250326 27.668457 M 13.250326 27.668457 C 13.011068 27.907715 13.005371 28.295085 13.238932 28.534342 M 13.250326 27.668457 L 13.238932 28.534342 M 13.238932 28.534342 C 13.358561 28.659668 13.518066 28.722331 13.677572 28.722331 C 13.83138 28.722331 13.990885 28.665365 14.104818 28.545736 C 16.144206 26.557617 17.14681 23.811849 17.010091 20.616048 C 16.907552 18.229167 16.218262 16.446126 16.189779 16.366374 Z M 13.238932 28.534342 " transform="matrix(0.685714,0,0,0.685714,0,0)"/>
<path style="fill-rule:nonzero;fill:rgb(51.764706%,74.509804%,31.764706%);fill-opacity:1;stroke-width:0.2;stroke-linecap:butt;stroke-linejoin:miter;stroke:rgb(51.764706%,74.509804%,31.764706%);stroke-opacity:1;stroke-miterlimit:4;" d="M 11.866048 11.25651 C 11.529948 11.267904 11.262207 11.552734 11.2736 11.894531 L 11.512858 18.536784 C 11.524251 18.867188 11.797689 19.129232 12.122396 19.129232 C 12.133789 19.129232 12.139486 19.129232 12.145182 19.123535 C 12.486979 19.112142 12.749023 18.833008 12.73763 18.491211 L 12.498372 11.848958 C 12.486979 11.507161 12.207845 11.250814 11.866048 11.25651 Z M 11.866048 11.25651 " transform="matrix(0.685714,0,0,0.685714,0,0)"/>
<path style="fill-rule:nonzero;fill:rgb(51.764706%,74.509804%,31.764706%);fill-opacity:1;stroke-width:0.2;stroke-linecap:butt;stroke-linejoin:miter;stroke:rgb(51.764706%,74.509804%,31.764706%);stroke-opacity:1;stroke-miterlimit:4;" d="M 6.602376 26.870931 L 6.602376 26.876628 L 6.61377 26.888021 C 6.619466 26.893717 6.630859 26.905111 6.647949 26.922201 C 6.676432 26.95638 6.722005 26.996257 6.778971 27.053223 C 6.887207 27.161458 7.046712 27.30957 7.240397 27.469076 C 7.633464 27.788086 8.157552 28.152669 8.721517 28.357747 M 6.602376 26.870931 L 8.994954 29.109701 L 9.0861 29.14388 C 9.205729 28.82487 9.040527 28.47168 8.721517 28.357747 M 6.602376 26.870931 C 6.374512 26.62028 5.987142 26.60319 5.736491 26.831055 Z M 8.721517 28.357747 L 8.687337 28.45459 Z M 5.690918 27.691243 C 5.742188 27.74821 6.870117 28.990072 8.299967 29.508464 L 5.80485 26.905111 C 5.594076 27.093099 5.576986 27.417806 5.764974 27.628581 Z M 5.690918 27.691243 " transform="matrix(0.685714,0,0,0.685714,0,0)"/>
<path style="fill-rule:nonzero;fill:rgb(51.764706%,74.509804%,31.764706%);fill-opacity:1;stroke-width:0.2;stroke-linecap:butt;stroke-linejoin:miter;stroke:rgb(51.764706%,74.509804%,31.764706%);stroke-opacity:1;stroke-miterlimit:4;" d="M 12.412923 19.943848 C 12.076823 19.943848 11.803385 20.222982 11.803385 20.559082 L 11.803385 20.604655 C 11.803385 20.946452 12.076823 21.219889 12.412923 21.219889 C 12.75472 21.219889 13.028158 20.946452 13.028158 20.604655 L 13.028158 20.559082 C 13.028158 20.222982 12.75472 19.943848 12.412923 19.943848 Z M 12.412923 19.943848 " transform="matrix(0.685714,0,0,0.685714,0,0)"/>
<path style="fill-rule:nonzero;fill:rgb(51.764706%,74.509804%,31.764706%);fill-opacity:1;stroke-width:0.2;stroke-linecap:butt;stroke-linejoin:miter;stroke:rgb(51.764706%,74.509804%,31.764706%);stroke-opacity:1;stroke-miterlimit:4;" d="M 11.148275 21.299642 C 10.812174 21.299642 10.538737 21.573079 10.538737 21.90918 L 10.538737 21.954753 C 10.538737 22.296549 10.812174 22.569987 11.148275 22.569987 C 11.490072 22.569987 11.763509 22.296549 11.763509 21.954753 L 11.763509 21.90918 C 11.763509 21.573079 11.490072 21.299642 11.148275 21.299642 Z M 11.148275 21.299642 " transform="matrix(0.685714,0,0,0.685714,0,0)"/>
<path style="fill-rule:nonzero;fill:rgb(51.764706%,74.509804%,31.764706%);fill-opacity:1;stroke-width:0.2;stroke-linecap:butt;stroke-linejoin:miter;stroke:rgb(51.764706%,74.509804%,31.764706%);stroke-opacity:1;stroke-miterlimit:4;" d="M 12.783203 23.595378 C 12.441406 23.595378 12.167969 23.868815 12.167969 24.204915 L 12.167969 24.250488 C 12.167969 24.592285 12.441406 24.865723 12.783203 24.865723 C 13.119303 24.865723 13.392741 24.592285 13.392741 24.250488 L 13.392741 24.204915 C 13.392741 23.868815 13.119303 23.595378 12.783203 23.595378 Z M 12.783203 23.595378 " transform="matrix(0.685714,0,0,0.685714,0,0)"/>
</g>
</svg>
